<svg width="16" height="16" viewBox="0 0 16 16" fill="none" xmlns="http://www.w3.org/2000/svg">
<path d="M12.6667 3.43341H12.7667V3.33341V2.10008H13.9V3.33341V3.43341H14H15.2333V4.56675H14H13.9V4.66675V5.90008H12.7667V4.66675V4.56675H12.6667H8.76666V3.43341H12.6667ZM11.4333 6.10008H12.5667V7.23341H11.4333V6.10008ZM12.5667 1.90008H11.4333V0.766748H12.5667V1.90008ZM13.3333 12.7667H13.4333V12.6667V8.76675H14.5667V13.9001H1.43333V2.10008H7.23333V3.23341H2.66666H2.56666V3.33341V12.6667V12.7667H2.66666H13.3333ZM6.76666 8.56675V7.43341H7.9V8.56675H6.76666ZM5.43333 9.90008V8.76675H6.56666V9.90008H5.43333ZM5.23333 10.1001V11.2334H4.09999V10.1001H5.23333ZM9.23333 7.23341H8.1V6.10008H9.23333V7.23341ZM10.5667 8.56675H9.43333V7.43341H10.5667V8.56675ZM10.7667 8.76675H11.9V9.90008H10.7667V8.76675ZM4.09999 4.76675H5.23333V5.90008H4.09999V4.76675Z" fill="#E4E4E4" stroke="black" stroke-width="0.2"/>
</svg>
