<svg width="25" height="25" viewBox="0 0 57 57" fill="none" xmlns="http://www.w3.org/2000/svg">
<g clip-path="url(#clip0_333_11)">
<g filter="url(#filter0_d_333_11)">
<path d="M9.6475 7.65405H32.9808V12.3207H9.6475V44.9874H46.9808V26.3207H51.6475V49.6541H4.98083V7.65405H9.6475ZM32.9808 21.6541H28.3142V26.3207H23.6475V30.9874H18.9808V35.6541H14.3142V40.3207H18.9808V35.6541H23.6475V30.9874H28.3142V26.3207H32.9808V30.9874H37.6475V35.6541H42.3142V30.9874H37.6475V26.3207H32.9808V21.6541ZM18.9808 16.9874H14.3142V21.6541H18.9808V16.9874ZM42.3142 7.65405H46.9808V12.3207H51.6475V16.9874H46.9808V21.6541H42.3142V16.9874H37.6475V12.3207H42.3142V7.65405Z" fill="#E4E4E4"/>
<path d="M47.4808 44.9874V26.8207H51.1475V49.1541H5.48083V8.15405H9.6475H32.4808V11.8207H9.6475H9.1475V12.3207V44.9874V45.4874H9.6475H46.9808H47.4808V44.9874ZM42.8142 12.3207V8.15405H46.4808V12.3207V12.8207H46.9808H51.1475V16.4874H46.9808H46.4808V16.9874V21.1541H42.8142V16.9874V16.4874H42.3142H38.1475V12.8207H42.3142H42.8142V12.3207ZM28.8142 25.8207V22.1541H32.4808V25.8207H28.8142ZM27.8142 26.8207V30.4874H24.1475V26.8207H27.8142ZM23.1475 31.4874V35.1541H19.4808V31.4874H23.1475ZM18.4808 36.1541V39.8207H14.8142V36.1541H18.4808ZM37.1475 30.4874H33.4808V26.8207H37.1475V30.4874ZM38.1475 31.4874H41.8142V35.1541H38.1475V31.4874ZM14.8142 21.1541V17.4874H18.4808V21.1541H14.8142Z" stroke="black"/>
</g>
</g>
<defs>
<filter id="filter0_d_333_11" x="0.980835" y="7.65405" width="54.6666" height="50" filterUnits="userSpaceOnUse" color-interpolation-filters="sRGB">
<feFlood flood-opacity="0" result="BackgroundImageFix"/>
<feColorMatrix in="SourceAlpha" type="matrix" values="0 0 0 0 0 0 0 0 0 0 0 0 0 0 0 0 0 0 127 0" result="hardAlpha"/>
<feOffset dy="4"/>
<feGaussianBlur stdDeviation="2"/>
<feComposite in2="hardAlpha" operator="out"/>
<feColorMatrix type="matrix" values="0 0 0 0 0 0 0 0 0 0 0 0 0 0 0 0 0 0 0.25 0"/>
<feBlend mode="normal" in2="BackgroundImageFix" result="effect1_dropShadow_333_11"/>
<feBlend mode="normal" in="SourceGraphic" in2="effect1_dropShadow_333_11" result="shape"/>
</filter>
<clipPath id="clip0_333_11">
<rect width="56" height="56" fill="white" transform="translate(0.314209 0.654053)"/>
</clipPath>
</defs>
</svg>
