<svg width="16" height="16" viewBox="0 0 16 16" fill="none" xmlns="http://www.w3.org/2000/svg">
<path d="M6.43334 3.99992V1.43325H11.5667V3.99992V4.09992H11.6667H15.5667V5.23325H14.3333H14.2333V5.33325V14.5666H3.76668V5.33325V5.23325H3.66668H2.43334V4.09992H6.33334H6.43334V3.99992ZM10.4333 2.66659V2.56659H10.3333H7.66668H7.56668V2.66659V3.99992V4.09992H7.66668H10.3333H10.4333V3.99992V2.66659ZM5.00001 5.23325H4.90001V5.33325V13.3333V13.4333H5.00001H13H13.1V13.3333V5.33325V5.23325H13H10.3333H5.00001ZM8.23334 6.76658V11.8999H7.10001V6.76658H8.23334ZM9.76668 11.8999V6.76658H10.9V11.8999H9.76668Z" fill="#952323" stroke="black" stroke-width="0.2"/>
</svg>
