<svg width="38" height="21" viewBox="0 0 38 21" fill="none" xmlns="http://www.w3.org/2000/svg">
<path fill-rule="evenodd" clip-rule="evenodd" d="M11.0852 20.1675H16.6803V13.4731C17.1287 12.94 17.5829 12.4444 18.1888 11.9766C18.5893 11.6675 18.8279 11.4765 19.0439 11.2865C19.26 11.4765 19.4986 11.6675 19.899 11.9766C20.505 12.4444 20.9592 12.94 21.4076 13.4731V20.1675H27.0027C28.3409 20.1675 29.6661 19.9088 30.9024 19.4063C32.1388 18.9037 33.2622 18.1671 34.2085 17.2385C35.1547 16.31 35.9054 15.2076 36.4175 13.9943C36.9296 12.7811 37.1932 11.4807 37.1932 10.1675C37.1932 8.85426 36.9296 7.5539 36.4175 6.34064C35.9054 5.12739 35.1547 4.025 34.2085 3.09641C33.2622 2.16783 32.1388 1.43123 30.9024 0.92868C29.6661 0.42614 28.3409 0.16748 27.0027 0.16748H25.4329H21.4076V6.0555C20.9592 6.562 20.505 7.03302 19.899 7.47748C19.4986 7.7712 19.26 7.95264 19.0439 8.13326C18.8279 7.95264 18.5893 7.7712 18.1888 7.47748C17.5829 7.03302 17.1287 6.56201 16.6803 6.0555V0.16748H12.6549H11.0852C9.74693 0.16748 8.4218 0.42614 7.18543 0.92868C5.94907 1.43123 4.82568 2.16783 3.8794 3.09641C2.93313 4.025 2.18251 5.12739 1.67039 6.34064C1.15827 7.5539 0.894684 8.85426 0.894684 10.1675C0.894684 11.4807 1.15827 12.7811 1.67039 13.9943C2.18251 15.2076 2.93313 16.31 3.8794 17.2385C4.82568 18.1671 5.94907 18.9037 7.18543 19.4063C8.4218 19.9088 9.74693 20.1675 11.0852 20.1675ZM18.008 9.06741C17.9186 9.02886 17.8298 8.98849 17.7415 8.94631C17.3746 8.77106 17.02 8.56586 16.6803 8.33268V11.0766C17.02 10.8312 17.3746 10.6152 17.7415 10.4308C17.8298 10.3864 17.9186 10.3439 18.008 10.3034C17.5321 9.87695 17.1932 9.66962 17.1932 9.66962C17.8175 9.66962 18.4384 9.75573 19.0439 9.92513C19.6495 9.75573 20.2703 9.66962 20.8947 9.66962C20.8947 9.66962 20.5558 9.87695 20.0799 10.3034C20.1692 10.3439 20.2581 10.3864 20.3464 10.4308C20.7133 10.6152 21.0679 10.8312 21.4076 11.0766V8.33267C21.0679 8.56586 20.7133 8.77106 20.3464 8.94631C20.2581 8.98849 20.1692 9.02886 20.0799 9.06741C20.5558 9.47261 20.8947 9.66962 20.8947 9.66962C20.2703 9.66962 19.6495 9.58778 19.0439 9.42682C18.4384 9.58778 17.8175 9.66962 17.1932 9.66962C17.1932 9.66962 17.5321 9.47262 18.008 9.06741ZM9.44727 14.0478C9.96655 14.2588 10.5231 14.3675 11.0852 14.3675V5.96748C10.5231 5.96748 9.96655 6.07612 9.44727 6.28719C8.928 6.49826 8.45618 6.80762 8.05874 7.19763C7.66131 7.58764 7.34605 8.05064 7.13095 8.56021C6.91586 9.06978 6.80516 9.61593 6.80516 10.1675C6.80516 10.719 6.91586 11.2652 7.13095 11.7747C7.34605 12.2843 7.66131 12.7473 8.05874 13.1373C8.45618 13.5273 8.928 13.8367 9.44727 14.0478ZM28.6406 14.0478C28.1213 14.2588 27.5648 14.3675 27.0027 14.3675V5.96748C27.5648 5.96748 28.1213 6.07612 28.6406 6.28719C29.1599 6.49826 29.6317 6.80762 30.0291 7.19763C30.4266 7.58764 30.7418 8.05064 30.9569 8.56021C31.172 9.06978 31.2827 9.61593 31.2827 10.1675C31.2827 10.719 31.172 11.2652 30.9569 11.7747C30.7418 12.2843 30.4266 12.7473 30.0291 13.1373C29.6317 13.5273 29.1599 13.8367 28.6406 14.0478Z" fill="#181F33"/>
</svg>
